{"title":"G.I.Joe.Retaliation.2013.TS.V2.XViD-FANTA","uid":8339791,"size":1852120882,"categoryP":"video","categoryS":"movies","magnet":"?xt=urn:btih:95ac59463bf26b27f5170fcb80a0ea824134a35c&amp;dn=G.I.Joe.Retaliation.2013.TS.V2.XViD-FANTA&amp;tr=udp%3A%2F%2Ftracker.openbittorrent.com%3A80&amp;tr=udp%3A%2F%2Fopen.demonii.com%3A1337&amp;tr=udp%3A%2F%2Ftracker.coppersurfer.tk%3A6969&amp;tr=udp%3A%2F%2Fexodus.desync.com%3A6969","seeders":4,"leechers":0,"uploader":"xxxlavalxxx","files":2,"time":1365069066,"description":" &lt;a href=&quot;http://www.imdb.com/title/tt1583421/&quot; rel=&quot;nofollow&quot; target=&quot;_NEW&quot;&gt;http://www.imdb.com/title/tt1583421/&lt;/a&gt;\n\n\nPlot: The G.I. Joes are not only fighting their mortal enemy Cobra; they are forced to contend with threats from within the government that jeopardize their very existence. \n\n\n\nDirector:\n Jon M. Chu \n\nWriters:\n Rhett Reese, Paul Wernick \n\nStars:\n Dwayne Johnson, D.J. Cotrona, Channing Tatum\n\nGenres:\n  Action |  Adventure |  Sci-Fi |  Thriller \n\nCountry:\n USA \n\nLanguage:\n English \n\n\n\n\nFormat                                   : AVI\nFormat/Info                              : Audio Video Interleave\nFormat profile                           : OpenDML\nFormat settings                          : rec\nFile size                                : 1.72 GiB\nDuration                                 : 1h 40mn\nOverall bit rate                         : 2 451 Kbps\nWriting application                      : AVI-Mux GUI 1.17.8.3, Feb 16 201019:42:50\n\nVideo\nID                                       : 0\nFormat                                   : MPEG-4 Visual\nFormat profile                           : Advanced Simple@L5\nFormat settings, BVOP                    : 1\nFormat settings, QPel                    : No\nFormat settings, GMC                     : No warppoints\nFormat settings, Matrix                  : Default (H.263)\nMuxing mode                              : Packed bitstream\nCodec ID                                 : XVID\nCodec ID/Hint                            : XviD\nDuration                                 : 1h 40mn\nBit rate                                 : 2 253 Kbps\nWidth                                    : 720 pixels\nHeight                                   : 304 pixels\nDisplay aspect ratio                     : 2.35:1\nFrame rate                               : 23.976 fps\nColor space                              : YUV\nChroma subsampling                       : 4:2:0\nBit depth                                : 8 bits\nScan type                                : Progressive\nCompression mode                         : Lossy\nBits/(Pixel*Frame)                       : 0.429\nStream size                              : 1.59 GiB (92%)\nWriting library                          : XviD 64\n\nAudio\nID                                       : 1\nFormat                                   : AC-3\nFormat/Info                              : Audio Coding 3\nMode extension                           : CM (complete main)\nFormat settings, Endianness              : Big\nCodec ID                                 : 2000\nDuration                                 : 1h 40mn\nBit rate mode                            : Constant\nBit rate                                 : 192 Kbps\nChannel(s)                               : 2 channels\nChannel positions                        : Front: L R\nSampling rate                            : 48.0 KHz\nBit depth                                : 16 bits\nCompression mode                         : Lossy\nStream size                              : 138 MiB (8%)\nAlignment                                : Aligned on interleaves\nInterleave, duration                     : 64 ms (1.53 video frames)\nInterleave, preload duration             : 192 ms\nTitle                                    : audio-fant\n\n\n &lt;a href=&quot;\nhttp://bayimg.com/iALcLAaeF&quot; rel=&quot;nofollow&quot; target=&quot;_NEW&quot;&gt;\nhttp://bayimg.com/iALcLAaeF&lt;/a&gt; &lt;a href=&quot;\nhttp://bayimg.com/iaLCnAaeF&quot; rel=&quot;nofollow&quot; target=&quot;_NEW&quot;&gt;\nhttp://bayimg.com/iaLCnAaeF&lt;/a&gt;\n","torrent":{"xt":"urn:btih:95ac59463bf26b27f5170fcb80a0ea824134a35c","amp;dn":"G.I.Joe.Retaliation.2013.TS.V2.XViD-FANTA","amp;tr":["udp%3A%2F%2Ftracker.openbittorrent.com%3A80","udp%3A%2F%2Fopen.demonii.com%3A1337","udp%3A%2F%2Ftracker.coppersurfer.tk%3A6969","udp%3A%2F%2Fexodus.desync.com%3A6969"],"infoHash":"95ac59463bf26b27f5170fcb80a0ea824134a35c","infoHashBuffer":{"type":"Buffer","data":[149,172,89,70,59,242,107,39,245,23,15,203,128,160,234,130,65,52,163,92]},"announce":[],"urlList":[]}}